<?xml version="1.0" standalone="no"?>
<!DOCTYPE svg PUBLIC "-//W3C//DTD SVG 20010904//EN"
 "http://www.w3.org/TR/2001/REC-SVG-20010904/DTD/svg10.dtd">
<svg version="1.0" xmlns="http://www.w3.org/2000/svg"
 width="1024.000000pt" height="1536.000000pt" viewBox="0 0 1024.000000 1536.000000"
 preserveAspectRatio="xMidYMid meet">

<g transform="translate(0.000000,1536.000000) scale(0.100000,-0.100000)"
fill="#000000" stroke="none">
<path d="M4895 11474 c-1130 -74 -2182 -629 -2824 -1489 -420 -562 -667 -1182
-758 -1900 -24 -187 -24 -658 0 -855 73 -601 281 -1167 610 -1660 999 -1496
2878 -2112 4544 -1489 893 333 1642 1002 2072 1849 213 420 336 819 398 1295
25 197 25 680 0 880 -136 1053 -654 1972 -1453 2577 -562 426 -1218 687 -1939
773 -126 15 -527 27 -650 19z m-278 -986 c57 -53 67 -115 31 -179 -28 -50 -93
-84 -146 -75 -131 21 -174 192 -67 262 58 38 137 34 182 -8z m2006 -22 c13
-14 48 -100 82 -202 64 -190 86 -226 146 -238 17 -3 103 -6 191 -6 176 0 221
-10 238 -55 20 -51 1 -73 -187 -213 -67 -50 -129 -102 -137 -114 -25 -35 -19
-78 35 -267 56 -191 57 -219 14 -247 -38 -25 -73 -11 -218 91 -167 116 -191
129 -230 121 -17 -4 -94 -48 -171 -100 -155 -103 -196 -126 -222 -126 -28 0
-64 40 -64 72 0 16 23 108 50 204 28 96 50 184 50 196 0 39 -33 74 -157 168
-172 130 -183 141 -183 184 0 43 27 71 78 80 20 3 106 6 190 6 161 0 200 8
235 48 10 11 47 102 82 203 66 190 83 219 132 219 13 0 34 -11 46 -24z m-3205
-283 c12 -11 30 -51 42 -98 46 -166 92 -214 248 -255 93 -25 112 -39 112 -81
0 -34 -20 -46 -136 -79 -130 -37 -183 -95 -224 -245 -29 -106 -35 -115 -70
-115 -38 0 -53 23 -75 117 -35 146 -99 213 -244 253 -100 28 -111 35 -111 70
0 37 21 57 73 70 83 22 136 42 169 63 51 35 94 107 114 193 18 77 44 124 69
124 7 0 22 -8 33 -17z m1803 -332 c21 -22 29 -39 29 -66 0 -27 -8 -44 -29 -66
-22 -21 -39 -29 -66 -29 -51 0 -95 44 -95 95 0 51 44 95 95 95 27 0 44 -8 66
-29z m30 -791 c125 -26 233 -62 344 -115 159 -76 355 -216 355 -254 0 -23 -96
-114 -175 -168 -203 -137 -557 -263 -907 -323 -123 -21 -142 -30 -168 -73 -37
-60 -18 -142 40 -172 40 -21 134 -19 281 6 439 74 831 238 1036 432 45 43 78
67 87 64 41 -16 190 -257 214 -348 14 -51 -12 -104 -90 -186 -113 -117 -248
-208 -479 -324 -139 -69 -172 -97 -184 -148 -14 -66 51 -141 122 -141 111 0
453 177 627 324 37 32 73 55 80 53 20 -8 26 -67 20 -191 -20 -402 -160 -722
-440 -1001 -118 -118 -248 -210 -409 -290 -233 -116 -447 -162 -710 -152 -82
3 -188 13 -235 22 -192 38 -391 120 -555 231 -93 62 -193 149 -183 159 3 3 61
-7 128 -24 183 -46 325 -62 560 -62 319 0 375 14 401 101 15 48 -8 102 -53
130 -31 18 -50 20 -265 20 -148 0 -273 5 -346 15 -321 42 -610 160 -768 315
-59 57 -70 74 -88 133 -25 83 -56 256 -47 265 4 3 19 1 34 -5 321 -135 490
-177 817 -204 246 -20 766 5 857 40 13 5 37 23 53 41 26 27 30 39 30 86 0 52
-3 58 -39 91 l-39 36 -146 -9 c-80 -5 -281 -9 -446 -8 -257 1 -319 4 -435 23
-279 44 -555 140 -658 226 -41 35 -47 73 -27 179 53 287 204 565 425 786 122
122 227 199 373 275 165 87 328 139 512 164 110 15 384 5 496 -19z m-2635
-126 c36 -17 74 -76 74 -114 0 -38 -29 -89 -62 -110 -52 -33 -122 -23 -165 24
-28 30 -33 43 -33 84 0 54 17 84 64 113 38 23 77 24 122 3z m5119 -142 c44
-25 77 -96 72 -151 -12 -113 -146 -180 -238 -118 -72 48 -97 125 -65 200 36
85 144 118 231 69z m-5416 -796 c48 -25 63 -83 36 -136 -19 -37 -43 -50 -93
-50 -72 0 -120 76 -88 139 31 58 87 77 145 47z m4994 -65 c55 -55 35 -146 -40
-177 -92 -39 -185 66 -138 155 33 65 124 77 178 22z m502 -496 c35 -34 33 -78
-5 -117 -26 -25 -36 -29 -63 -24 -38 7 -77 48 -77 81 0 13 12 37 26 54 33 40
83 43 119 6z m-5217 -285 c69 -42 94 -139 52 -208 -63 -102 -222 -96 -271 12
-23 51 -23 74 -3 126 33 83 144 117 222 70z m5468 -269 c143 -65 137 -265 -15
-556 -225 -429 -699 -971 -1148 -1313 -229 -174 -495 -328 -668 -387 -93 -31
-219 -43 -282 -26 -129 35 -166 174 -99 370 47 135 153 313 198 332 37 15 80
0 97 -36 15 -32 15 -35 -43 -170 -26 -63 -44 -153 -38 -193 2 -12 14 -29 27
-38 60 -39 297 60 555 232 393 262 775 644 1036 1035 180 269 254 470 192 513
-29 20 -108 21 -178 1 -30 -9 -77 -19 -103 -22 -41 -5 -51 -2 -72 17 -51 48
-22 102 80 153 197 97 369 130 461 88z m-1041 -452 c-77 -4 -157 -12 -178 -19
-22 -6 -41 -9 -44 -7 -14 14 133 35 242 34 l120 0 -140 -8z m271 -28 c83 -28
208 -92 220 -113 8 -12 -4 -6 -48 24 -39 27 -163 78 -238 99 -36 10 -54 18
-40 18 14 1 62 -12 106 -28z m-586 -46 c-152 -80 -257 -188 -339 -350 -22 -44
-41 -76 -41 -70 0 5 18 45 40 90 76 151 183 259 333 337 40 21 77 38 82 38 6
-1 -28 -21 -75 -45z m801 -133 c-6 -11 -54 -78 -107 -148 -222 -296 -479 -552
-749 -746 -189 -136 -220 -144 -262 -68 -13 25 -18 37 -11 26 38 -54 51 -66
72 -66 40 0 290 176 436 305 232 207 592 629 617 724 5 18 8 21 11 9 2 -9 -1
-26 -7 -36z m-4445 10 c81 -65 39 -182 -65 -182 -20 0 -42 11 -63 29 -27 24
-33 36 -33 71 0 35 6 47 33 71 38 34 94 39 128 11z m654 -292 c13 -7 29 -40
45 -93 44 -144 83 -184 217 -223 92 -27 111 -40 111 -79 0 -37 -10 -44 -102
-70 -141 -40 -190 -92 -226 -243 -13 -54 -24 -77 -41 -89 -22 -14 -26 -14 -49
1 -15 10 -28 32 -35 58 -34 134 -41 149 -88 198 -37 38 -59 52 -107 65 -124
34 -130 37 -133 77 -4 45 16 60 100 79 120 26 181 86 216 214 20 73 43 115 64
115 5 0 18 -5 28 -10z m2597 -92 c-38 -155 -27 -336 28 -473 29 -72 26 -85 -4
-16 -57 133 -72 330 -37 484 10 43 20 76 23 73 3 -2 -2 -33 -10 -68z m-1379
-604 c29 -20 52 -66 52 -105 0 -47 -65 -109 -114 -109 -111 0 -164 124 -86
202 23 23 37 28 77 28 28 0 58 -7 71 -16z"/>
</g>
</svg>
